<?xml version="1.0" encoding="utf-8"?>
<!-- Generator: Adobe Illustrator 27.6.1, SVG Export Plug-In . SVG Version: 6.00 Build 0)  -->
<svg version="1.1" id="Layer_1" xmlns="http://www.w3.org/2000/svg" xmlns:xlink="http://www.w3.org/1999/xlink" x="0px" y="0px"
	 viewBox="0 0 1512.17 370.09" style="enable-background:new 0 0 1512.17 370.09;" xml:space="preserve">
<style type="text/css">
	.st0{fill:#FFBB00;}
</style>
<g>
	<path class="st0" d="M244.83,206.06c0,48.62-46.42,69.95-102.57,69.95H15.54L59.46,56.44h116.37c52.07,0,78.73,19.13,78.73,52.38
		c0,25.41-15.06,43.91-39.21,54.26C234.16,171.24,244.83,185.98,244.83,206.06z M171.43,204.17c0-9.72-8.47-14.43-18.19-14.43
		h-47.68l-6.9,34.5h47.68C160.77,224.25,171.43,217.66,171.43,204.17z M121.87,108.19l-6.59,32.62h37.64
		c16.94,0,24.47-7.21,24.47-19.13c0-9.1-7.21-13.49-19.45-13.49H121.87z"/>
	<path class="st0" d="M363.39,112.27l-5.02,25.72h92.84l-10.66,53.32h-93.16l-5.65,28.86h110.09L440.55,276H258l43.91-219.56h178.47
		l-11.29,55.83H363.39z"/>
	<path class="st0" d="M629.06,237.74h-83.75L523.36,276h-78.1L585.15,56.44h72.77L709.98,276h-73.71L629.06,237.74z M618.71,184.41
		l-10.66-56.15l-32.31,56.15H618.71z"/>
	<path class="st0" d="M896.3,212.02l36.7,63.99h-76.85l-31.05-55.2H806.9L795.92,276H721.9l43.91-219.56h98.49
		c58.03,0,91.27,26.66,91.27,72.14C955.58,167.79,933.62,197.9,896.3,212.02z M853.01,113.53h-24.78l-10.35,51.44h30.42
		c20.39,0,32.31-10.66,32.31-29.17C880.61,120.11,869.95,113.53,853.01,113.53z"/>
	<path class="st0" d="M1062.22,112.27l-7.53,37.64h91.59l-11.29,55.83h-91.27L1029.6,276h-74.02l43.91-219.56h178.47l-11.29,55.83
		H1062.22z"/>
	<path class="st0" d="M1201.48,56.44h74.02L1231.6,276h-74.02L1201.48,56.44z"/>
	<path class="st0" d="M1347.34,113.84h-64.3l11.61-57.4h202.62l-11.61,57.4h-64.3L1389.05,276h-74.02L1347.34,113.84z"/>
</g>
</svg>
